<?xml version="1.0" encoding="UTF-8"?>
<svg width="82px" height="82px" viewBox="0 0 82 82" version="1.1" xmlns="http://www.w3.org/2000/svg" xmlns:xlink="http://www.w3.org/1999/xlink">
    <!-- Generator: Sketch 48.1 (47250) - http://www.bohemiancoding.com/sketch -->
    <title>tnf-logo</title>
    <desc>Created with Sketch.</desc>
    <defs></defs>
    <g id="Bars/Desktop/Navi-bar-default-event" stroke="none" stroke-width="1" fill="none" fill-rule="evenodd" transform="translate(-36.000000, -51.000000)">
        <g id="Navi-bar" transform="translate(0.000000, 32.000000)">
            <g id="Navi-tool" transform="translate(36.000000, 0.000000)">
                <g id="tnf-logo" transform="translate(0.000000, 19.000000)">
                    <polygon id="Fill-1" fill="#ED3124" points="0 82 82 82 82 0 0 0"></polygon>
                    <polygon id="Fill-2" fill="#FEFEFE" points="32.0087462 35.5662651 30.2352649 35.5662651 30.2352649 28.2476873 27.6626506 28.2476873 27.6626506 26.6746988 34.5783133 26.6746988 34.5783133 28.2476873 32.0087462 28.2476873"></polygon>
                    <polygon id="Fill-3" fill="#FEFEFE" points="37.3548117 31.5780834 37.3548117 35.5662651 35.5662651 35.5662651 35.5662651 26.6746988 37.3548117 26.6746988 37.3548117 30.0455766 40.6918471 30.0455766 40.6918471 26.6746988 42.4819277 26.6746988 42.4819277 35.5662651 40.6918471 35.5662651 40.6918471 31.5780834"></polygon>
                    <polygon id="Fill-4" fill="#FEFEFE" points="50.3855422 28.2476873 45.3399312 28.2476873 45.3399312 30.1169551 49.7865749 30.1169551 49.7865749 31.6899436 45.3399312 31.6899436 45.3399312 33.9956659 50.383821 33.9956659 50.383821 35.5662651 43.4698795 35.5662651 43.4698795 26.6746988 50.3855422 26.6746988"></polygon>
                    <polygon id="Fill-5" fill="#FEFEFE" points="15.1394356 36.5542169 16.7951807 36.5542169 16.7951807 45.4457831 15.0223627 45.4457831 11.5603502 39.1060422 11.534503 39.1060422 11.534503 45.4457831 9.87951807 45.4457831 9.87951807 36.5542169 11.7458423 36.5542169 15.1113077 42.7450216 15.1394356 42.7450216"></polygon>
                    <g id="Group-30" transform="translate(16.795181, 25.686747)" fill="#FEFEFE">
                        <path d="M5.11364561,10.4724114 C6.30426867,10.4724114 9.42965422,10.9874202 9.42965422,15.2098483 C9.42965422,19.4290524 6.30426867,19.9448673 5.11364561,19.9448673 C3.92704492,19.9448673 0.797637005,19.4290524 0.797637005,15.2098483 C0.797637005,10.9874202 3.92704492,10.4724114 5.11364561,10.4724114 M5.11364561,18.3547068 C6.12808864,18.3547068 7.55120499,17.7284754 7.55120499,15.2098483 C7.55120499,12.6920271 6.12808864,12.0649897 5.11364561,12.0649897 C4.10322496,12.0649897 2.67528176,12.6920271 2.67528176,15.2098483 C2.67528176,17.7284754 4.10322496,18.3547068 5.11364561,18.3547068" id="Fill-6"></path>
                        <polygon id="Fill-8" points="22.6643949 19.7086402 20.7899681 19.7086402 20.7899681 12.3010555 18.0716469 12.3010555 18.0716469 10.7108951 25.3738669 10.7108951 25.3738669 12.3010555 22.6643949 12.3010555"></polygon>
                        <polygon id="Fill-10" points="27.9249377 15.6745652 27.9249377 19.7083984 26.0505108 19.7083984 26.0505108 10.7106533 27.9249377 10.7106533 27.9249377 14.1174491 31.4260131 14.1174491 31.4260131 10.7106533 33.3044623 10.7106533 33.3044623 19.7083984 31.4260131 19.7083984 31.4260131 15.6745652"></polygon>
                        <path d="M10.2095928,10.7112981 L14.7524633,10.7112981 C17.1409497,10.7112981 17.5769752,12.4779639 17.5769752,13.2573279 C17.5769752,14.2470476 17.0741783,15.099754 16.1868423,15.4011833 C16.9269594,15.7251795 17.325979,16.0000121 17.325979,17.6796342 C17.325979,18.994962 17.325979,19.3221821 17.7266076,19.4720907 L17.7266076,19.7090432 L15.6486485,19.7090432 C15.5247594,19.2867198 15.4515522,18.8192626 15.4515522,17.8940197 C15.4515522,16.6649297 15.3775404,16.1902188 13.9849941,16.1902188 L12.0494272,16.1902188 L12.0494272,19.7090432 L10.2095928,19.7090432 L10.2095928,10.7112981 Z M14.2528843,14.6725949 C15.2287126,14.6725949 15.7033528,14.3332854 15.7033528,13.4435048 C15.7033528,12.968794 15.4877535,12.2676082 14.3904496,12.2676082 L12.0494272,12.2676082 L12.0494272,14.6725949 L14.2528843,14.6725949 Z" id="Fill-12"></path>
                        <polygon id="Fill-14" points="6.53989941 29.6277595 4.66627704 29.6277595 4.66627704 20.6308204 11.0546134 20.6308204 11.0546134 22.2233987 6.53989941 22.2233987 6.53989941 24.2528077 10.4906764 24.2528077 10.4906764 25.846998 6.53989941 25.846998"></polygon>
                        <path d="M11.8982663,29.6277595 L9.92167115,29.6277595 L13.1242863,20.6316264 L15.2883242,20.6316264 L18.4507156,29.6277595 L16.4113713,29.6277595 L15.8369761,27.773244 L12.5233434,27.773244 L11.8982663,29.6277595 Z M13.0253359,26.2209637 L15.3132629,26.2209637 L14.1982605,22.6634533 L14.1781486,22.6634533 L13.0253359,26.2209637 Z" id="Fill-16"></path>
                        <path d="M24.21132,23.6073944 C24.0641011,23.0706246 23.7728811,22.0559201 22.2250711,22.0559201 C21.3248635,22.0559201 19.9942618,22.6563608 19.9942618,25.1991668 C19.9942618,26.8151179 20.6362329,28.2706829 22.2250711,28.2706829 C23.2620394,28.2706829 23.9900894,27.6815257 24.21132,26.5781655 L26.0865513,26.5781655 C25.7124704,28.5326202 24.4389864,29.8979176 22.1864563,29.8979176 C19.7979699,29.8979176 18.0828291,28.2859962 18.0828291,25.174988 C18.0828291,22.0309353 19.8953114,20.4262676 22.2162219,20.4262676 C24.9007551,20.4262676 25.9851875,22.2823951 26.0865513,23.6073944 L24.21132,23.6073944 Z" id="Fill-18"></path>
                        <polygon id="Fill-20" points="33.305669 22.2237211 28.5890318 22.2237211 28.5890318 24.1136989 32.7457544 24.1136989 32.7457544 25.7070832 28.5890318 25.7070832 28.5890318 28.0387275 33.3040601 28.0387275 33.3040601 29.6288879 26.8409076 29.6288879 26.8409076 20.6319488 33.305669 20.6319488"></polygon>
                        <path d="M2.1114252,27.1433051 C2.86360936,27.1433051 3.49351332,27.7372982 3.49351332,28.5158562 C3.49351332,29.3097275 2.86360936,29.9037205 2.1114252,29.9037205 C1.35602313,29.9037205 0.722096799,29.3097275 0.722096799,28.5158562 C0.722096799,27.7372982 1.35602313,27.1433051 2.1114252,27.1433051 Z M2.1114252,29.7006184 C2.74856943,29.7006184 3.24332158,29.1912512 3.24332158,28.5158562 C3.24332158,27.8541625 2.74856943,27.3456013 2.1114252,27.3456013 C1.46704069,27.3456013 0.972288537,27.8541625 0.972288537,28.5158562 C0.972288537,29.1912512 1.46704069,29.7006184 2.1114252,29.7006184 Z M1.57323139,27.7139253 L2.19589508,27.7139253 C2.57962967,27.7139253 2.75983208,27.8654459 2.75983208,28.1765467 C2.75983208,28.4674985 2.57641177,28.5891986 2.33587373,28.6166013 L2.79603346,29.3290705 L2.52814327,29.3290705 L2.0888999,28.6343324 L1.82422761,28.6343324 L1.82422761,29.3290705 L1.57323139,29.3290705 L1.57323139,27.7139253 Z M1.82422761,28.4312303 L2.085682,28.4312303 C2.30691263,28.4312303 2.50883587,28.4191409 2.50883587,28.1652633 C2.50883587,27.9500718 2.32541556,27.9170274 2.15486685,27.9170274 L1.82422761,27.9170274 L1.82422761,28.4312303 Z" id="Fill-22"></path>
                        <path d="M55.9126244,21.6421399 C55.9126244,10.1169021 46.6048482,0.789519087 35.0992461,0.789519087 L34.6865504,0.789519087 L34.6865504,9.78726417 L35.0992461,9.78726417 C41.7924785,9.78807013 47.2178582,15.1734994 47.2958923,21.8597493 L47.2975012,21.8597493 L47.2975012,29.6284043 L55.9126244,29.6284043 L55.9126244,21.6421399 Z" id="Fill-24"></path>
                        <path d="M35.0991657,20.6311428 L34.6880789,20.6311428 L34.6880789,29.6288879 L38.9952383,29.6288879 L38.9952383,24.5336044 C38.9952383,22.3760477 37.2535498,20.6311428 35.0991657,20.6311428" id="Fill-26"></path>
                        <path d="M46.377584,21.9640406 C46.3526453,15.7452479 41.3222628,10.7200831 35.1093021,10.7112175 L34.6869527,10.7112175 L34.6869527,12.5141516 L34.6869527,19.7081566 L35.0988439,19.7081566 C37.7608518,19.7081566 39.9160404,21.8657134 39.9160404,24.5334432 L39.9160404,29.6287267 L46.377584,29.6287267 L46.377584,21.9640406 Z" id="Fill-28"></path>
                    </g>
                </g>
            </g>
        </g>
    </g>
</svg>